<?xml version="1.0" standalone="no"?>
<!DOCTYPE svg PUBLIC "-//W3C//DTD SVG 20010904//EN"
 "http://www.w3.org/TR/2001/REC-SVG-20010904/DTD/svg10.dtd">
<svg version="1.0" xmlns="http://www.w3.org/2000/svg"
 width="1920.000000pt" height="1920.000000pt" viewBox="0 0 1920.000000 1920.000000"
 preserveAspectRatio="xMidYMid meet">
<metadata>
Created by potrace 1.14, written by Peter Selinger 2001-2017
</metadata>
<g transform="translate(0.000000,1920.000000) scale(0.100000,-0.100000)"
fill="#000000" stroke="none">
<path d="M2165 19189 c-127 -12 -301 -46 -430 -84 -955 -280 -1634 -1104
-1725 -2090 -14 -158 -14 -14679 1 -14835 106 -1151 1021 -2064 2174 -2170
158 -14 14679 -14 14835 1 1151 106 2064 1021 2170 2174 14 158 14 14679 -1
14835 -106 1151 -1021 2064 -2174 2170 -137 12 -14718 11 -14850 -1z m2210
-2893 c260 -414 637 -707 1093 -848 187 -57 580 -133 892 -172 288 -36 435
-46 835 -56 435 -12 576 -29 875 -106 411 -107 869 -342 1220 -628 161 -131
237 -203 225 -215 -22 -21 -1750 -1401 -1756 -1401 -3 0 -15 17 -26 38 -132
233 -459 319 -723 190 -158 -76 -296 -247 -329 -406 -8 -37 -11 -470 -11
-1412 l0 -1359 -37 -10 c-21 -6 -544 -136 -1163 -291 -619 -154 -1133 -283
-1142 -286 -17 -5 -18 168 -18 3527 0 1943 2 3530 5 3528 2 -3 29 -45 60 -93z
m12189 -12805 c-27 -179 -89 -340 -179 -466 -56 -78 -223 -240 -304 -294 -118
-80 -257 -132 -421 -156 -81 -13 -556 -15 -3262 -15 -1743 0 -3168 3 -3168 6
0 4 343 600 761 1325 l761 1317 48 -56 c128 -153 295 -282 449 -347 172 -73
365 -127 571 -161 95 -16 218 -18 1258 -21 l1152 -4 0 2667 0 2667 -28 -6
c-81 -16 -431 -29 -652 -24 -325 8 -556 36 -830 102 -504 122 -1009 379 -1320
673 -465 439 -702 1064 -702 1857 -1 296 30 515 107 769 244 805 972 1486
1880 1761 297 90 547 123 1010 135 597 15 959 55 1415 156 428 95 661 193 922
386 170 126 357 330 483 526 l60 94 3 -6394 c2 -5843 1 -6402 -14 -6497z"/>
<path d="M13540 13150 c-241 -45 -448 -259 -482 -497 -27 -186 32 -354 171
-493 272 -272 683 -228 900 96 125 187 130 429 11 613 -80 123 -206 223 -329
262 -74 23 -204 32 -271 19z"/>
</g>
</svg>
